<?xml version="1.0" ?>
<!-- Uploaded to: SVG Repo, www.svgrepo.com, Generator: SVG Repo Mixer Tools -->
<svg fill="#000000" width="800px" height="800px" viewBox="0 0 32 32" xmlns="http://www.w3.org/2000/svg">
<title/>
<g data-name="Layer 2" id="Layer_2">
<path d="M16,3A13.77,13.77,0,0,0,2,16.5,13.77,13.77,0,0,0,16,30,13.77,13.77,0,0,0,30,16.5,13.77,13.77,0,0,0,16,3ZM27.51,13.26a15.68,15.68,0,0,0-6-2.25A17,17,0,0,0,19.6,5.53,11.8,11.8,0,0,1,27.51,13.26ZM16,28c-1.15,0-2.61-2.08-3.41-5.69A32.17,32.17,0,0,0,16,22.5a32.17,32.17,0,0,0,3.41-.19C18.61,25.92,17.15,28,16,28Zm0-7.5a31.16,31.16,0,0,1-3.77-.23,31,31,0,0,1,0-7.54,31,31,0,0,1,7.54,0A31.16,31.16,0,0,1,20,16.5a31.16,31.16,0,0,1-.23,3.77A31.16,31.16,0,0,1,16,20.5Zm-5.81-.59c-3.61-.8-5.69-2.26-5.69-3.41s2.08-2.61,5.69-3.41a30.7,30.7,0,0,0,0,6.82ZM16,5c1.15,0,2.61,2.08,3.41,5.69A32.17,32.17,0,0,0,16,10.5a32.17,32.17,0,0,0-3.41.19C13.39,7.08,14.85,5,16,5Zm5.81,8.09c3.61.8,5.69,2.26,5.69,3.41s-2.08,2.61-5.69,3.41A32.17,32.17,0,0,0,22,16.5,32.17,32.17,0,0,0,21.81,13.09ZM12.4,5.53A17,17,0,0,0,10.51,11a15.68,15.68,0,0,0-6,2.25A11.8,11.8,0,0,1,12.4,5.53ZM4.49,19.74a15.68,15.68,0,0,0,6,2.25,17,17,0,0,0,1.89,5.48A11.8,11.8,0,0,1,4.49,19.74ZM19.6,27.47A17,17,0,0,0,21.49,22a15.68,15.68,0,0,0,6-2.25A11.8,11.8,0,0,1,19.6,27.47Z"/>
</g>
</svg>